<svg xmlns="http://www.w3.org/2000/svg" xmlns:xlink="http://www.w3.org/1999/xlink" width="245.122" height="149.563" viewBox="0 0 245.122 149.563">
  <defs>
    <clipPath id="clip-path">
      <rect width="245.122" height="149.563" fill="none"/>
    </clipPath>
    <filter id="Path_3523" x="0" y="104.3" width="31.59" height="44.707" filterUnits="userSpaceOnUse">
      <feOffset dy="1" input="SourceAlpha"/>
      <feGaussianBlur stdDeviation="1.5" result="blur"/>
      <feFlood flood-opacity="0.259"/>
      <feComposite operator="in" in2="blur"/>
      <feComposite in="SourceGraphic"/>
    </filter>
    <filter id="Path_3524" x="20.482" y="103.766" width="42.669" height="45.241" filterUnits="userSpaceOnUse">
      <feOffset dy="1" input="SourceAlpha"/>
      <feGaussianBlur stdDeviation="1.5" result="blur-2"/>
      <feFlood flood-opacity="0.259"/>
      <feComposite operator="in" in2="blur-2"/>
      <feComposite in="SourceGraphic"/>
    </filter>
    <filter id="Path_3525" x="55.629" y="103.766" width="30.452" height="45.241" filterUnits="userSpaceOnUse">
      <feOffset dy="1" input="SourceAlpha"/>
      <feGaussianBlur stdDeviation="1.5" result="blur-3"/>
      <feFlood flood-opacity="0.259"/>
      <feComposite operator="in" in2="blur-3"/>
      <feComposite in="SourceGraphic"/>
    </filter>
    <filter id="Path_3526" x="80.063" y="104.3" width="41.895" height="44.707" filterUnits="userSpaceOnUse">
      <feOffset dy="1" input="SourceAlpha"/>
      <feGaussianBlur stdDeviation="1.5" result="blur-4"/>
      <feFlood flood-opacity="0.259"/>
      <feComposite operator="in" in2="blur-4"/>
      <feComposite in="SourceGraphic"/>
    </filter>
    <filter id="Path_3527" x="116.618" y="104.3" width="18.527" height="44.707" filterUnits="userSpaceOnUse">
      <feOffset dy="1" input="SourceAlpha"/>
      <feGaussianBlur stdDeviation="1.5" result="blur-5"/>
      <feFlood flood-opacity="0.259"/>
      <feComposite operator="in" in2="blur-5"/>
      <feComposite in="SourceGraphic"/>
    </filter>
    <filter id="Path_3528" x="129.465" y="103.766" width="46.063" height="45.798" filterUnits="userSpaceOnUse">
      <feOffset dy="1" input="SourceAlpha"/>
      <feGaussianBlur stdDeviation="1.5" result="blur-6"/>
      <feFlood flood-opacity="0.259"/>
      <feComposite operator="in" in2="blur-6"/>
      <feComposite in="SourceGraphic"/>
    </filter>
    <filter id="Path_3529" x="168.516" y="104.3" width="46.791" height="45.143" filterUnits="userSpaceOnUse">
      <feOffset dy="1" input="SourceAlpha"/>
      <feGaussianBlur stdDeviation="1.5" result="blur-7"/>
      <feFlood flood-opacity="0.259"/>
      <feComposite operator="in" in2="blur-7"/>
      <feComposite in="SourceGraphic"/>
    </filter>
    <filter id="Path_3530" x="208.27" y="104.3" width="36.851" height="44.707" filterUnits="userSpaceOnUse">
      <feOffset dy="1" input="SourceAlpha"/>
      <feGaussianBlur stdDeviation="1.5" result="blur-8"/>
      <feFlood flood-opacity="0.259"/>
      <feComposite operator="in" in2="blur-8"/>
      <feComposite in="SourceGraphic"/>
    </filter>
    <filter id="Path_3531" x="47.823" y="0" width="147.998" height="97.829" filterUnits="userSpaceOnUse">
      <feOffset dy="1" input="SourceAlpha"/>
      <feGaussianBlur stdDeviation="1" result="blur-9"/>
      <feFlood flood-opacity="0.259"/>
      <feComposite operator="in" in2="blur-9"/>
      <feComposite in="SourceGraphic"/>
    </filter>
  </defs>
  <g id="Repeat_Grid_3" data-name="Repeat Grid 3" clip-path="url(#clip-path)">
    <g id="Group_4262" data-name="Group 4262" transform="translate(-52.471 -168.587)">
      <g transform="matrix(1, 0, 0, 1, 52.47, 168.59)" filter="url(#Path_3523)">
        <path id="Path_3523-2" data-name="Path 3523" d="M12.98,48.468V48.1H35.57V52.3h-.363v-.169a.2.2,0,0,1-.049-.145A3.261,3.261,0,0,0,33.8,49.728a6.577,6.577,0,0,0-2.667-.412H19.622V65.049H30.34a5.469,5.469,0,0,0,1.886-.218,1.058,1.058,0,0,0,.581-.971h.365v3.42h-.365q0-1.239-1.6-1.238H19.622V80.276a3.721,3.721,0,0,0,.617,2.589,3.074,3.074,0,0,0,2.122.581v.365H12.98v-.365q1.647,0,2.084-.63a3.065,3.065,0,0,0,.436-1.768V51.69a4.514,4.514,0,0,0-.51-2.507A2.333,2.333,0,0,0,12.98,48.468Z" transform="translate(-8.48 59.7)" fill="#fff"/>
      </g>
      <g transform="matrix(1, 0, 0, 1, 52.47, 168.59)" filter="url(#Path_3524)">
        <path id="Path_3524-2" data-name="Path 3524" d="M42.741,67.67H32.263L26.857,81.147a7.823,7.823,0,0,0-.557,1.795q0,.8,1.189.8v.365h-5.31v-.365a3,3,0,0,0,1.792-.521,6.57,6.57,0,0,0,1.6-2.7L38.51,47.865h.643L51.883,79.4a13.664,13.664,0,0,0,.98,2.291,3.166,3.166,0,0,0,2.986,2.051v.365H47.51v-.365q1.139,0,1.14-.9a5.878,5.878,0,0,0-.559-1.939.8.8,0,0,1-.169-.314c-.033-.163-.056-.243-.071-.243Zm-10.135-.993h9.656L37.44,54.507Z" transform="translate(2.8 59.4)" fill="#fff"/>
      </g>
      <g transform="matrix(1, 0, 0, 1, 52.47, 168.59)" filter="url(#Path_3525)">
        <path id="Path_3525-2" data-name="Path 3525" d="M55.782,48.86l1.7,4.46-.292.049q0-.023-1.345-1.432A9.28,9.28,0,0,0,48.85,49a7.952,7.952,0,0,0-5.807,2.1A6.812,6.812,0,0,0,40.9,56.157a5.9,5.9,0,0,0,1.006,3.429,9.126,9.126,0,0,0,4.2,2.736q5.5,1.854,7.526,2.788a11.575,11.575,0,0,1,3.905,3.159,8.551,8.551,0,0,1,1.879,5.713,11.064,11.064,0,0,1-.338,2.774A9.258,9.258,0,0,1,57.988,79.3a11.069,11.069,0,0,1-1.806,2.227,8.311,8.311,0,0,1-2.146,1.525,11.526,11.526,0,0,1-3.442.788q-2.351.267-3.1.267H37.965V73.73h.365q.047,5.163,2.422,7.2t7.394,2.037q4.555,0,6.92-2.158a6.779,6.779,0,0,0,2.365-5.188,5.737,5.737,0,0,0-.826-3.139A7.721,7.721,0,0,0,54.3,70.2a27.61,27.61,0,0,0-5.6-2.4,29.694,29.694,0,0,1-5.758-2.516,8.252,8.252,0,0,1-2.776-3.246,9.537,9.537,0,0,1-1.118-4.42,9.375,9.375,0,0,1,2.85-6.951,10.185,10.185,0,0,1,7.477-2.81,19.981,19.981,0,0,1,3.879.414,18.921,18.921,0,0,1,2.327.532A.417.417,0,0,0,55.782,48.86Z" transform="translate(22.16 59.4)" fill="#fff"/>
      </g>
      <g transform="matrix(1, 0, 0, 1, 52.47, 168.59)" filter="url(#Path_3526)">
        <path id="Path_3526-2" data-name="Path 3526" d="M75.192,66H55.581V79.719a10.014,10.014,0,0,0,.183,2.469,1.818,1.818,0,0,0,.679.9,3.05,3.05,0,0,0,1.732.363v.365H48.939v-.365q2.522.17,2.523-2.447V52.3a7.279,7.279,0,0,0-.4-3.1q-.4-.655-2.122-.728V48.1h9.236v.363a3.493,3.493,0,0,0-2.06.583,2.7,2.7,0,0,0-.534,1.986V65H75.192V52.226a7.828,7.828,0,0,0-.376-2.97q-.374-.788-2.1-.788V48.1h9.113v.363a3.853,3.853,0,0,0-1.61.256,1.357,1.357,0,0,0-.719.786,11.067,11.067,0,0,0-.191,2.714v27.4a10.43,10.43,0,0,0,.191,2.63,1.807,1.807,0,0,0,.672.859,3.007,3.007,0,0,0,1.657.338v.365H72.72v-.365a2.491,2.491,0,0,0,1.975-.606q.494-.6.5-3.266Z" transform="translate(35.62 59.7)" fill="#fff"/>
      </g>
      <g transform="matrix(1, 0, 0, 1, 52.47, 168.59)" filter="url(#Path_3527)">
        <path id="Path_3527-2" data-name="Path 3527" d="M74.884,48.1v.363a3.712,3.712,0,0,0-1.565.218,1.4,1.4,0,0,0-1.018.848,13,13,0,0,0-.158,2.641v27.4a11.4,11.4,0,0,0,.183,2.725,1.631,1.631,0,0,0,.7.824,3.736,3.736,0,0,0,1.855.327v.365H65.357v-.365q1.793,0,2.231-.69a7.029,7.029,0,0,0,.436-3.137V52.489a7.368,7.368,0,0,0-.485-3.331q-.484-.785-2.182-.69V48.1Z" transform="translate(55.76 59.7)" fill="#fff"/>
      </g>
      <g transform="matrix(1, 0, 0, 1, 52.47, 168.59)" filter="url(#Path_3528)">
        <path id="Path_3528-2" data-name="Path 3528" d="M91.126,47.865a17.051,17.051,0,0,1,12.29,4.571,15.138,15.138,0,0,1,4.774,11.4,21.066,21.066,0,0,1-5.526,14.811Q97.136,84.663,88,84.663A16.358,16.358,0,0,1,71.127,68.18a21.94,21.94,0,0,1,2.278-9.4,18.981,18.981,0,0,1,17.721-10.91Zm-.145,34.907A14.923,14.923,0,0,0,98.253,80.8a14.674,14.674,0,0,0,5.646-5.442,13.775,13.775,0,0,0,2.062-7.127,16.85,16.85,0,0,0-2.776-9.427,19.722,19.722,0,0,0-7.2-6.644,17.366,17.366,0,0,0-8.182-2.4,13.859,13.859,0,0,0-9.634,4A12.983,12.983,0,0,0,73.843,63.7a19.079,19.079,0,0,0,5.284,13.33Q84.41,82.773,90.981,82.772Z" transform="translate(62.84 59.4)" fill="#fff"/>
      </g>
      <g transform="matrix(1, 0, 0, 1, 52.47, 168.59)" filter="url(#Path_3529)">
        <path id="Path_3529-2" data-name="Path 3529" d="M119.548,48.1h6.909v.363a3.172,3.172,0,0,0-2.182.668,3.9,3.9,0,0,0-.606,2.605V84.248L95.187,53.918v26.4a6.585,6.585,0,0,0,.194,1.864,1.4,1.4,0,0,0,.557.824,6.274,6.274,0,0,0,1.819.436v.365H90.9v-.365q1.84,0,2.289-.655a6.625,6.625,0,0,0,.45-3.124V55.517a13,13,0,0,0-.884-5.183q-.885-2.011-4.086-1.866V48.1h6.715L122.142,76.6V51.4q0-2.034-.728-2.483a3.487,3.487,0,0,0-1.866-.45Z" transform="translate(84.35 59.7)" fill="#fff"/>
      </g>
      <g transform="matrix(1, 0, 0, 1, 52.47, 168.59)" filter="url(#Path_3530)">
        <path id="Path_3530-2" data-name="Path 3530" d="M129.015,48.1h5.357v.363a3.6,3.6,0,0,0-1.672.485,5.814,5.814,0,0,0-1.5,1.7L122.47,63.887V80.231a4.41,4.41,0,0,0,.514,2.6,2.906,2.906,0,0,0,2.227.617v.365h-9.552v-.365q2.739.17,2.739-2.155l-.047-1.018V65.182L109.6,50.7q-1.379-2.3-3.077-2.231V48.1h8.434v.363q-1.179,0-1.178.9a3.232,3.232,0,0,0,.606,1.427l7.2,11.883L129.452,50.7a2.561,2.561,0,0,0,.485-.715,2.045,2.045,0,0,0,.265-.715q0-.8-1.042-.8h-.145Z" transform="translate(106.25 59.7)" fill="#fff"/>
      </g>
      <g transform="matrix(1, 0, 0, 1, 52.47, 168.59)" filter="url(#Path_3531)">
        <path id="Path_3531-2" data-name="Path 3531" d="M124.448,45.267c10.093-3.892,21.036-7.236,29.773-13.836-9,4.221-18.108,9-27.969,11.491,42.3-59.216-7.808-52.572-18.856-3.237C12.085-5.306,6.944,71.437,105.964,49.524c0,0-.007.058-.018.158a20.511,20.511,0,0,0-.122,4.246A37.539,37.539,0,0,0,107.93,65.6c-7.486,9.224-15.171,18.491-23.661,26.816,6.74-5.738,17.912-17.846,24.169-25.714,2.44,5.379,8.681,9.216,14.515,6.123.668-.26-9.745-4.74-11.389-9.975,3.142-4.82,7.214-9.414,10.585-14.216l.341-.3c1.57.394,4.482,1.1,8.176,1.888,2.772.557,5.747,1.158,8.819,1.719a140.69,140.69,0,0,0,18.362,2.146h.024c7.056.125,13.482-.922,17.912-4.262C158.815,50.023,140.885,50.3,124.448,45.267Zm-18.015,2.117-.873.16h0l-6.7,1.231c-91.8,13.39-75.412-47.674,7.813-5.484Zm3.46-2.941,4.435,1.483v0l-4.7.866Zm1.211,17.1c-1.042-1.663-1.948-8.737-1.641-12.756,4.021-.806,7.768-2.7,11.747-.779C117.947,52.623,114.563,57.1,111.1,61.54Zm11.874-17.788c-3.464,1.229-7.639-1.185-12.593-2.476C112.4,29.648,117.1,18.1,125.653,9.754c3.015-2.848,10.85-9.3,14.581-5.8a3.841,3.841,0,0,1,1.151,2.894c-.127,6.118-2.333,11.858-5.223,17.34-1.668,2.984-3.139,5.511-4.435,7.655q-.721,1.176-1.438,2.338C125.112,42.441,123.255,43.612,122.979,43.753Z" transform="translate(17.04 1.41)" fill="#fff"/>
      </g>
      <path id="Path_3532" data-name="Path 3532" d="M96.485.587l.5,2.38A8.694,8.694,0,0,0,103.719,9.7l2.378.5-2.378.5a8.693,8.693,0,0,0-6.737,6.737l-.5,2.378-.5-2.378A8.694,8.694,0,0,0,89.251,10.7l-2.38-.5,2.38-.5a8.694,8.694,0,0,0,6.735-6.735Z" transform="translate(134.619 170)" fill="#fff"/>
    </g>
  </g>
</svg>
