<svg xmlns="http://www.w3.org/2000/svg" xmlns:xlink="http://www.w3.org/1999/xlink" width="129.764" height="42.443" viewBox="0 0 129.764 42.443">
  <defs>
    <linearGradient id="linear-gradient" x1="0.5" y1="-0.001" x2="0.5" y2="1" gradientUnits="objectBoundingBox">
      <stop offset="0" stop-color="#fff"/>
      <stop offset="1" stop-color="#f3f3f3"/>
    </linearGradient>
    <linearGradient id="linear-gradient-2" x1="0.5" x2="0.5" y2="1" gradientUnits="objectBoundingBox">
      <stop offset="0" stop-color="#fff8f8"/>
      <stop offset="1" stop-color="#ccc8c8"/>
    </linearGradient>
    <clipPath id="clip-path">
      <rect width="129.764" height="42.443" fill="none"/>
    </clipPath>
    <clipPath id="clip-path-2">
      <path id="Path_59" data-name="Path 59" d="M56.767,44l-5.835-3.374S40.277,34.456,39.643,34.1s-1.243-.152-1.243.609V61.272c0,.558.457.812.989.507s11.543-6.672,11.543-6.672l5.86-3.374,5.632-3.247c.66-.381.609-.913.051-1.192C61.892,46.989,56.767,44,56.767,44Z" transform="translate(-38.4 -33.932)" fill="url(#linear-gradient)"/>
    </clipPath>
    <linearGradient id="linear-gradient-3" x1="0.5" x2="0.628" y2="0.97" gradientUnits="objectBoundingBox">
      <stop offset="0" stop-color="#fff"/>
      <stop offset="1" stop-color="#e8e8e8"/>
    </linearGradient>
  </defs>
  <g id="Group_427" data-name="Group 427" transform="translate(-2)">
    <g id="Repeat_Grid_3" data-name="Repeat Grid 3" transform="translate(2)" clip-path="url(#clip-path)">
      <g transform="translate(-2)">
        <g id="Path_57" data-name="Path 57" transform="translate(2)" fill="#590ea8">
          <path d="M 124.0307846069336 41.94293212890625 L 5.73348331451416 41.94293212890625 C 2.847733497619629 41.94293212890625 0.5000001788139343 39.59519958496094 0.5000001788139343 36.70944976806641 L 0.5000001788139343 5.733466148376465 C 0.5000001788139343 2.847716093063354 2.847733497619629 0.4999994039535522 5.73348331451416 0.4999994039535522 L 124.0307846069336 0.4999994039535522 C 126.9165344238281 0.4999994039535522 129.2642669677734 2.847716093063354 129.2642669677734 5.733466148376465 L 129.2642669677734 36.70944976806641 C 129.2642669677734 39.59519958496094 126.9165344238281 41.94293212890625 124.0307846069336 41.94293212890625 Z" stroke="none"/>
          <path d="M 124.0307846069336 41.44293212890625 C 126.6408309936523 41.44293212890625 128.7642669677734 39.31949996948242 128.7642669677734 36.70944976806641 L 128.7642669677734 5.733466148376465 C 128.7642669677734 3.123415946960449 126.6408309936523 0.9999994039535522 124.0307846069336 0.9999994039535522 L 5.73348331451416 0.9999994039535522 C 3.123433589935303 0.9999994039535522 1.00000011920929 3.123415946960449 1.00000011920929 5.733466148376465 L 1.00000011920929 36.70944976806641 C 1.00000011920929 39.31949996948242 3.123433589935303 41.44293212890625 5.73348331451416 41.44293212890625 L 124.0307846069336 41.44293212890625 M 124.0307846069336 42.44293212890625 L 5.73348331451416 42.44293212890625 C 2.562300205230713 42.44293212890625 1.505533759882383e-07 39.88063430786133 1.505533759882383e-07 36.70944976806641 L 1.505533759882383e-07 5.733466148376465 C 1.505533759882383e-07 2.562299489974976 2.562300205230713 -6.022135607963719e-07 5.73348331451416 -6.022135607963719e-07 L 124.0307846069336 -6.022135607963719e-07 C 127.2019500732422 -6.022135607963719e-07 129.7642669677734 2.562299489974976 129.7642669677734 5.733466148376465 L 129.7642669677734 36.70944976806641 C 129.7642669677734 39.88063430786133 127.2019500732422 42.44293212890625 124.0307846069336 42.44293212890625 Z" stroke="none" fill="#590ea8"/>
        </g>
      </g>
    </g>
    <g id="PLAY_2_" transform="translate(9.742 8.608)">
      <g id="Group_21" data-name="Group 21" clip-path="url(#clip-path-2)">
        <path id="Path_58" data-name="Path 58" d="M38.4,32.2V60.943L52.886,46.584Z" transform="translate(-38.4 -32.639)" fill="url(#linear-gradient-3)"/>
      </g>
      <g id="Group_22" data-name="Group 22" clip-path="url(#clip-path-2)">
        <path id="Path_60" data-name="Path 60" d="M56.767,42.4,50.932,39.03,38.4,31.8v.1L52.886,46.286Z" transform="translate(-38.4 -32.341)" fill="url(#linear-gradient)"/>
      </g>
      <g id="Group_23" data-name="Group 23" clip-path="url(#clip-path-2)">
        <path id="Path_62" data-name="Path 62" d="M38.4,103.259v.1l12.532-7.23,5.835-3.374L52.886,88.9Z" transform="translate(-38.4 -74.955)" fill="url(#linear-gradient)"/>
      </g>
      <g id="Group_24" data-name="Group 24" clip-path="url(#clip-path-2)">
        <path id="Path_64" data-name="Path 64" d="M99.382,73.6,95.5,77.482l3.882,3.856,6.7-3.856Z" transform="translate(-81.014 -63.536)" fill="url(#linear-gradient)"/>
      </g>
    </g>
    <g id="Group_25" data-name="Group 25" transform="translate(97.089 16.135)">
      <path id="Path_66" data-name="Path 66" d="M386.607,85.551a3.672,3.672,0,0,1-1.5-.3,2.717,2.717,0,0,1-1.142-.939h-.1a13.373,13.373,0,0,1,.1,1.4v3.45H382.7v-12.1h1.04l.178,1.142h.051a2.989,2.989,0,0,1,1.142-.989,3.505,3.505,0,0,1,1.5-.3,3.074,3.074,0,0,1,2.562,1.142,6.05,6.05,0,0,1,0,6.393A3.232,3.232,0,0,1,386.607,85.551Zm-.2-7.585a2.2,2.2,0,0,0-1.852.71,3.594,3.594,0,0,0-.583,2.258v.279a4.254,4.254,0,0,0,.583,2.512,2.206,2.206,0,0,0,1.877.761,1.986,1.986,0,0,0,1.7-.888,4.183,4.183,0,0,0,.609-2.41,4.074,4.074,0,0,0-.609-2.41A2.03,2.03,0,0,0,386.4,77.966Z" transform="translate(-382.7 -73.526)" fill="#f9f9f9"/>
      <path id="Path_67" data-name="Path 67" d="M419.568,75.473H418.3V63.6h1.268Z" transform="translate(-409.269 -63.6)" fill="#f9f9f9"/>
      <path id="Path_68" data-name="Path 68" d="M435.059,85.4l-.254-1.192h-.051a3.328,3.328,0,0,1-1.243,1.066,3.925,3.925,0,0,1-1.548.279,2.788,2.788,0,0,1-1.953-.634,2.316,2.316,0,0,1-.71-1.827c0-1.7,1.345-2.562,4.059-2.664l1.421-.051v-.507a2.094,2.094,0,0,0-.431-1.446A1.758,1.758,0,0,0,433,77.966a5.4,5.4,0,0,0-2.359.634l-.38-.964a5.718,5.718,0,0,1,1.345-.533,5.875,5.875,0,0,1,1.471-.2,3.231,3.231,0,0,1,2.207.66,2.734,2.734,0,0,1,.71,2.131V85.4Zm-2.867-.888a2.58,2.58,0,0,0,1.852-.66,2.391,2.391,0,0,0,.685-1.827v-.761l-1.268.051a4.471,4.471,0,0,0-2.182.482,1.391,1.391,0,0,0-.66,1.294,1.27,1.27,0,0,0,.406,1.04A1.658,1.658,0,0,0,432.192,84.511Z" transform="translate(-417.478 -73.526)" fill="#f9f9f9"/>
      <path id="Path_69" data-name="Path 69" d="M458.6,77.5h1.345l1.827,4.769a14.619,14.619,0,0,1,.736,2.359h.051c.076-.254.2-.71.406-1.319.2-.634.913-2.562,2.08-5.784h1.37l-3.577,9.488a4.774,4.774,0,0,1-1.243,2,2.609,2.609,0,0,1-1.75.584,5.828,5.828,0,0,1-1.142-.127V88.46a5.064,5.064,0,0,0,.939.1,1.909,1.909,0,0,0,1.852-1.471l.457-1.192Z" transform="translate(-439.345 -73.974)" fill="#f9f9f9"/>
    </g>
    <g id="Group_27" data-name="Group 27" transform="translate(39.373 15.222)">
      <path id="Path_70" data-name="Path 70" d="M286.495,78.634a2.848,2.848,0,0,1-.228,4.846,1.241,1.241,0,0,0-.482.863.992.992,0,0,0,.457.761l.634.482a3.091,3.091,0,0,1,1.471,2.461c0,1.649-1.6,3.3-4.592,3.3-2.537,0-3.755-1.218-3.755-2.512a2.485,2.485,0,0,1,1.345-2.131,7.641,7.641,0,0,1,3.349-.812,1.751,1.751,0,0,1-.533-1.192,1.364,1.364,0,0,1,.178-.685,4.3,4.3,0,0,1-.558.025,2.748,2.748,0,0,1-2.892-2.74A3.06,3.06,0,0,1,282,78.964a4.8,4.8,0,0,1,3.12-.964h3.6l-1.116.634ZM285.251,86.4a2.05,2.05,0,0,0-.406-.025,6.6,6.6,0,0,0-1.827.279,1.949,1.949,0,0,0-1.5,1.8c0,1.243,1.218,2.131,3.07,2.131,1.674,0,2.562-.812,2.562-1.877C287.154,87.818,286.6,87.336,285.251,86.4Zm.507-3.323a1.742,1.742,0,0,0,.431-1.268c0-1.268-.761-3.222-2.207-3.222a1.605,1.605,0,0,0-1.218.583,1.951,1.951,0,0,0-.381,1.294c0,1.167.685,3.12,2.182,3.12A1.775,1.775,0,0,0,285.759,83.074Z" transform="translate(-248.339 -73.434)" fill="#f9f9f9"/>
      <path id="Path_71" data-name="Path 71" d="M249.662,85.447a4.121,4.121,0,0,1-4.262-4.11,4.329,4.329,0,0,1,4.516-4.237,4.07,4.07,0,0,1,4.161,4.11A4.233,4.233,0,0,1,249.662,85.447Zm2.182-1.421a3.1,3.1,0,0,0,.533-1.928c0-1.548-.736-4.465-2.892-4.465a2.5,2.5,0,0,0-1.573.584,2.624,2.624,0,0,0-.812,2.131c0,1.725.863,4.566,2.968,4.566A2.153,2.153,0,0,0,251.844,84.026Z" transform="translate(-222.517 -72.762)" fill="#f9f9f9"/>
      <path id="Path_72" data-name="Path 72" d="M212.362,85.447a4.121,4.121,0,0,1-4.262-4.11,4.328,4.328,0,0,1,4.516-4.237,4.07,4.07,0,0,1,4.161,4.11A4.233,4.233,0,0,1,212.362,85.447Zm2.182-1.421a3.1,3.1,0,0,0,.533-1.928c0-1.548-.736-4.465-2.892-4.465a2.5,2.5,0,0,0-1.573.584,2.624,2.624,0,0,0-.812,2.131c0,1.725.863,4.566,2.968,4.566A2.153,2.153,0,0,0,214.544,84.026Z" transform="translate(-194.68 -72.762)" fill="#f9f9f9"/>
      <path id="Path_73" data-name="Path 73" d="M167.3,73.525l-2.512.583a19.32,19.32,0,0,1-2.892.3c-4.846,0-6.7-3.552-6.7-6.342,0-3.4,2.613-6.571,7.078-6.571a10.274,10.274,0,0,1,2.689.381,6.611,6.611,0,0,1,2.309,1.091l-1.446,1.4-.609.152.431-.71A5,5,0,0,0,161.9,62.16a4.857,4.857,0,0,0-4.871,5.175,6.2,6.2,0,0,0,6.215,6.393,5.449,5.449,0,0,0,2.233-.431V70.455l-2.638.152,1.4-.761h3.729l-.457.431a.384.384,0,0,0-.178.279c-.025.152-.025.66-.025.837v2.131Z" transform="translate(-155.2 -61.119)" fill="#f9f9f9"/>
      <path id="Path_74" data-name="Path 74" d="M316.529,71.9c-.583-.051-.71-.152-.71-.837V61.04c.076-.609.254-.71.786-1.04h-2.486l-1.319.634h1.345V71.467c0,.355-.076.406-.482.939h3.1l.66-.381C317.113,71.974,316.834,71.949,316.529,71.9Z" transform="translate(-272.818 -60)" fill="#f9f9f9"/>
      <path id="Path_75" data-name="Path 75" d="M336.868,84.763a6.423,6.423,0,0,1-.583.3,4.212,4.212,0,0,1-1.7.33,3.607,3.607,0,0,1-2.309-.685,4.465,4.465,0,0,1-1.776-3.679A3.97,3.97,0,0,1,334.483,77a3.425,3.425,0,0,1,1.8.482,2.96,2.96,0,0,1,1.218,1.725l-4.084,1.674-1.345.1c.431,2.207,1.928,3.5,3.6,3.5a4.485,4.485,0,0,0,2.131-.609Zm-1.624-5.2c.33-.127.507-.228.507-.482a1.739,1.739,0,0,0-1.725-1.5,2.13,2.13,0,0,0-2,2.41c0,.3.025.609.051.913Z" transform="translate(-286.028 -72.687)" fill="#f9f9f9"/>
      <g id="Group_26" data-name="Group 26" transform="translate(52.007 4.338)">
        <path id="Path_76" data-name="Path 76" d="M360.733,77.227v1.142h-.152V77.227H360.2V77.1h.888v.127Z" transform="translate(-360.2 -77.1)" fill="#f9f9f9"/>
        <path id="Path_77" data-name="Path 77" d="M365.639,78.368V77.2h0l-.355,1.167h-.1l-.355-1.167h0v1.167H364.7V77.1h.228l.33,1.015h0l.33-1.015h.228v1.268Z" transform="translate(-363.558 -77.1)" fill="#f9f9f9"/>
      </g>
    </g>
    <g id="Group_28" data-name="Group 28" transform="translate(39.424 8.549)">
      <path id="Path_78" data-name="Path 78" d="M158.85,37.552h-.863a4.813,4.813,0,0,0-.254-1.015h-1.268a4.815,4.815,0,0,0-.254,1.015H155.4a15.547,15.547,0,0,1,.634-1.75,12.789,12.789,0,0,0,.634-1.8h1.04a18.129,18.129,0,0,0,.583,1.776C158.647,36.867,158.85,37.45,158.85,37.552ZM157.582,36a15.687,15.687,0,0,1-.457-1.522h-.051A12.794,12.794,0,0,1,156.592,36Z" transform="translate(-155.4 -33.924)" fill="#f9f9fa"/>
      <path id="Path_79" data-name="Path 79" d="M174.217,37.477h-.685a7.412,7.412,0,0,0-.761-1.192,6.328,6.328,0,0,1-.888-1.548h-.051a8.776,8.776,0,0,1,.076,1.091c0,.457,0,.989.051,1.649h-.66c.025-.558.051-1.192.051-1.852s-.025-1.218-.051-1.7h.812a4.771,4.771,0,0,0,.685,1.142,5.587,5.587,0,0,1,.812,1.446h.051a8.782,8.782,0,0,1-.076-1.091c0-.482-.025-.989-.051-1.522h.685c-.025.457-.051,1.015-.051,1.7C174.192,36.31,174.192,36.919,174.217,37.477Z" transform="translate(-167.266 -33.849)" fill="#f9f9fa"/>
      <path id="Path_80" data-name="Path 80" d="M189.519,35.649a2.015,2.015,0,0,1-.507,1.345,1.744,1.744,0,0,1-1.4.583c-.279,0-.634,0-1.116-.025.025-.558.025-1.167.025-1.852,0-.66,0-1.218-.025-1.7h1.142a1.782,1.782,0,0,1,1.421.482A1.649,1.649,0,0,1,189.519,35.649Zm-.761.127a1.347,1.347,0,0,0-.3-.888,1.186,1.186,0,0,0-.939-.355,1.82,1.82,0,0,0-.33.025c.025.355.025.736.025,1.142,0,.431,0,.863.025,1.294a1.675,1.675,0,0,0,.355.025,1.054,1.054,0,0,0,.863-.355A1.226,1.226,0,0,0,188.758,35.776Z" transform="translate(-178.61 -33.924)" fill="#f9f9fa"/>
      <path id="Path_81" data-name="Path 81" d="M204.267,37.552h-.812a5.881,5.881,0,0,0-.482-1.192.623.623,0,0,0-.533-.228h-.3c0,.457,0,.939.025,1.421H201.4c.025-.558.025-1.167.025-1.852,0-.66,0-1.218-.025-1.7h1.294c.837,0,1.243.279,1.243.863a.938.938,0,0,1-.71.939v.051a.864.864,0,0,1,.482.431A5.849,5.849,0,0,1,204.267,37.552Zm-1.015-2.512c0-.355-.228-.533-.71-.533a1.26,1.26,0,0,0-.457.051c.025.279.025.66.025,1.091h.254C202.973,35.649,203.252,35.446,203.252,35.04Z" transform="translate(-189.73 -33.924)" fill="#f9f9fa"/>
      <path id="Path_82" data-name="Path 82" d="M217.95,35.5a2.051,2.051,0,0,1-.507,1.4,1.688,1.688,0,0,1-1.268.558,1.57,1.57,0,0,1-1.192-.507,1.741,1.741,0,0,1-.482-1.294,2.051,2.051,0,0,1,.507-1.4,1.688,1.688,0,0,1,1.268-.558,1.57,1.57,0,0,1,1.192.507A1.741,1.741,0,0,1,217.95,35.5Zm-.736.076a1.452,1.452,0,0,0-.279-.913.863.863,0,0,0-1.4,0,1.451,1.451,0,0,0-.279.913,1.324,1.324,0,0,0,.3.913.863.863,0,0,0,1.4,0A1.752,1.752,0,0,0,217.215,35.577Z" transform="translate(-199.507 -33.7)" fill="#f9f9fa"/>
      <path id="Path_83" data-name="Path 83" d="M231.961,37.552H231.2c.025-.558.025-1.192.025-1.852s0-1.218-.025-1.7h.761c-.025.457-.025,1.015-.025,1.7S231.936,36.994,231.961,37.552Z" transform="translate(-211.97 -33.924)" fill="#f9f9fa"/>
      <path id="Path_84" data-name="Path 84" d="M240.919,35.649a2.015,2.015,0,0,1-.507,1.345,1.744,1.744,0,0,1-1.4.583c-.279,0-.634,0-1.116-.025.025-.558.025-1.167.025-1.852,0-.66,0-1.218-.025-1.7h1.142a1.782,1.782,0,0,1,1.421.482A1.649,1.649,0,0,1,240.919,35.649Zm-.761.127a1.347,1.347,0,0,0-.3-.888,1.186,1.186,0,0,0-.939-.355,1.82,1.82,0,0,0-.33.025c.025.355.025.736.025,1.142,0,.431,0,.863.025,1.294a1.675,1.675,0,0,0,.355.025,1.054,1.054,0,0,0,.863-.355A1.226,1.226,0,0,0,240.158,35.776Z" transform="translate(-216.97 -33.924)" fill="#f9f9fa"/>
      <path id="Path_85" data-name="Path 85" d="M260.25,37.552h-.863a4.816,4.816,0,0,0-.254-1.015h-1.268a4.81,4.81,0,0,0-.254,1.015H256.8a15.533,15.533,0,0,1,.634-1.75,12.787,12.787,0,0,0,.634-1.8h1.04a18.133,18.133,0,0,0,.583,1.776A14.248,14.248,0,0,1,260.25,37.552ZM259.007,36a15.684,15.684,0,0,1-.457-1.522H258.5A12.8,12.8,0,0,1,258.018,36Z" transform="translate(-231.075 -33.924)" fill="#f9f9fa"/>
      <path id="Path_86" data-name="Path 86" d="M275.388,34.939a1.048,1.048,0,0,1-.482.964,2.191,2.191,0,0,1-1.192.3h-.178c0,.33,0,.786.025,1.345H272.8c.025-.533.025-1.142.025-1.852,0-.66,0-1.218-.025-1.7h1.37a1.5,1.5,0,0,1,.863.228A.793.793,0,0,1,275.388,34.939Zm-.71.152c0-.381-.254-.583-.786-.583a2.529,2.529,0,0,0-.406.051c.025.355.025.736.025,1.167h.152C274.348,35.725,274.677,35.5,274.677,35.091Z" transform="translate(-243.016 -33.924)" fill="#f9f9fa"/>
      <path id="Path_87" data-name="Path 87" d="M288.188,34.939a1.048,1.048,0,0,1-.482.964,2.191,2.191,0,0,1-1.192.3h-.178c0,.33,0,.786.025,1.345H285.6c.025-.533.025-1.142.025-1.852,0-.66,0-1.218-.025-1.7h1.37a1.5,1.5,0,0,1,.863.228A.743.743,0,0,1,288.188,34.939Zm-.685.152c0-.381-.254-.583-.786-.583a2.529,2.529,0,0,0-.406.051c.025.355.025.736.025,1.167h.152C287.173,35.725,287.5,35.5,287.5,35.091Z" transform="translate(-252.569 -33.924)" fill="#f9f9fa"/>
      <path id="Path_88" data-name="Path 88" d="M306.75,35.5a2.051,2.051,0,0,1-.507,1.4,1.6,1.6,0,0,1-1.268.558,1.57,1.57,0,0,1-1.192-.507,1.741,1.741,0,0,1-.482-1.294,2.05,2.05,0,0,1,.507-1.4,1.688,1.688,0,0,1,1.268-.558,1.57,1.57,0,0,1,1.192.507A1.741,1.741,0,0,1,306.75,35.5Zm-.761.076a1.451,1.451,0,0,0-.279-.913.863.863,0,0,0-1.4,0,1.451,1.451,0,0,0-.279.913,1.324,1.324,0,0,0,.3.913.863.863,0,0,0,1.4,0A1.545,1.545,0,0,0,305.989,35.577Z" transform="translate(-265.779 -33.7)" fill="#f9f9fa"/>
      <path id="Path_89" data-name="Path 89" d="M322.917,37.477h-.685a7.41,7.41,0,0,0-.761-1.192,6.328,6.328,0,0,1-.888-1.548h-.051a8.782,8.782,0,0,1,.076,1.091c0,.457,0,.989.051,1.649H320c.025-.558.051-1.192.051-1.852s-.025-1.218-.051-1.7h.812a4.771,4.771,0,0,0,.685,1.142,5.588,5.588,0,0,1,.812,1.446h.051a8.782,8.782,0,0,1-.076-1.091c0-.482,0-.989-.051-1.522h.685c-.025.457-.051,1.015-.051,1.7C322.867,36.31,322.892,36.919,322.917,37.477Z" transform="translate(-278.242 -33.849)" fill="#f9f9fa"/>
    </g>
  </g>
</svg>
