<svg xmlns="http://www.w3.org/2000/svg" width="41.813" height="48.576" viewBox="0 0 41.813 48.576">
  <g id="Group_4265" data-name="Group 4265" transform="translate(-5.104 -5)">
    <g id="Group_4267" data-name="Group 4267" transform="translate(5.105 5)">
      <path id="Path_3464" data-name="Path 3464" d="M42.106,32.78l-4.753-18.96C35.266,5.476,28.311-.223,20.49,0S5.993,6.319,4.3,14.774L.624,33.084A6.568,6.568,0,0,0,1.7,38.2a5.3,5.3,0,0,0,4.276,2.272h6.593c.865,4.715,4.61,8.1,8.957,8.1s8.092-3.388,8.957-8.1h6.343a5.32,5.32,0,0,0,4.362-2.4,6.592,6.592,0,0,0,.92-5.293ZM21.526,44.515a5.552,5.552,0,0,1-5.147-4.046H26.673a5.552,5.552,0,0,1-5.147,4.046Zm16.753-8.892a1.761,1.761,0,0,1-1.462.8H5.976a1.767,1.767,0,0,1-1.425-.757,2.19,2.19,0,0,1-.359-1.705L7.868,15.65C9.2,9.015,14.442,4.236,20.581,4.058s11.6,4.291,13.244,10.84l4.753,18.96a2.183,2.183,0,0,1-.3,1.766Z" transform="translate(-0.494 0.004)" fill="#fff"/>
    </g>
  </g>
</svg>
