<svg xmlns="http://www.w3.org/2000/svg" width="47" height="49" viewBox="0 0 47 49">
  <g id="_9026045_trophy_icon" data-name="9026045_trophy_icon" transform="translate(-0.038 0)">
    <rect id="Rectangle_1276" data-name="Rectangle 1276" width="47" height="49" transform="translate(0.038 0)" fill="none"/>
    <path id="Path_3533" data-name="Path 3533" d="M56,49.5V59.834A13.5,13.5,0,1,0,83.007,60V49.5a1.5,1.5,0,0,0-1.5-1.5H57.5A1.5,1.5,0,0,0,56,49.5Z" transform="translate(-46.458 -39.478)" fill="none" stroke="#fff" stroke-linecap="round" stroke-linejoin="round" stroke-width="1.5"/>
    <line id="Line_2" data-name="Line 2" x2="11" transform="translate(17.038 42)" fill="none" stroke="#fff" stroke-linecap="round" stroke-linejoin="round" stroke-width="1.5"/>
    <path id="Path_3536" data-name="Path 3536" d="M0,0V7.777" transform="translate(22.629 34.029)" fill="none" stroke="#fff" stroke-linecap="round" stroke-width="1.5"/>
    <path id="Path_3534" data-name="Path 3534" d="M198.2,82.5h1.838a6,6,0,0,0,6-6v-3a1.5,1.5,0,0,0-1.5-1.5h-6" transform="translate(-161.988 -58.977)" fill="none" stroke="#fff" stroke-linecap="round" stroke-linejoin="round" stroke-width="1.5"/>
    <path id="Path_3535" data-name="Path 3535" d="M23.8,82.5H21.9a6,6,0,0,1-6-6v-3A1.5,1.5,0,0,1,17.4,72h6" transform="translate(-13.879 -58.977)" fill="none" stroke="#fff" stroke-linecap="round" stroke-linejoin="round" stroke-width="1.5"/>
  </g>
</svg>
