<svg xmlns="http://www.w3.org/2000/svg" xmlns:xlink="http://www.w3.org/1999/xlink" width="128.249" height="41.947" viewBox="0 0 128.249 41.947">
  <defs>
    <clipPath id="clip-path">
      <rect width="128.249" height="41.947" fill="none"/>
    </clipPath>
  </defs>
  <g id="Repeat_Grid_4" data-name="Repeat Grid 4" clip-path="url(#clip-path)">
    <g id="Group_428" data-name="Group 428" transform="translate(0 0.496)">
      <g id="Path_90" data-name="Path 90" transform="translate(0 -0.496)" fill="none">
        <path d="M128.249,36.281a5.661,5.661,0,0,1-5.667,5.667H5.667A5.661,5.661,0,0,1,0,36.281V5.667A5.661,5.661,0,0,1,5.667,0H122.582a5.661,5.661,0,0,1,5.667,5.667Z" stroke="none"/>
        <path d="M 122.5824890136719 40.94733047485352 C 125.1556243896484 40.94733047485352 127.2490005493164 38.85393142700195 127.2490005493164 36.28079605102539 L 127.2490005493164 5.666530132293701 C 127.2490005493164 3.093396663665771 125.1556243896484 0.9999966621398926 122.5824890136719 0.9999966621398926 L 5.666520595550537 0.9999966621398926 C 3.093387365341187 0.9999966621398926 1.000004053115845 3.093396663665771 1.000004053115845 5.666530132293701 L 1.000004053115845 36.28079605102539 C 1.000004053115845 38.85393142700195 3.093387365341187 40.94733047485352 5.666520595550537 40.94733047485352 L 122.5824890136719 40.94733047485352 M 122.5824890136719 41.94733047485352 L 5.666520595550537 41.94733047485352 C 2.532387495040894 41.94733047485352 4.089355570613407e-06 39.4149284362793 4.089355570613407e-06 36.28079605102539 L 4.089355570613407e-06 5.666530132293701 C 4.089355570613407e-06 2.532380104064941 2.532387495040894 -3.336588633828796e-06 5.666520595550537 -3.336588633828796e-06 L 122.5824890136719 -3.336588633828796e-06 C 125.7166213989258 -3.336588633828796e-06 128.2490081787109 2.532380104064941 128.2490081787109 5.666530132293701 L 128.2490081787109 36.28079605102539 C 128.2490081787109 39.4149284362793 125.7166213989258 41.94733047485352 122.5824890136719 41.94733047485352 Z" stroke="none" fill="#590ea8"/>
      </g>
      <path id="Path_91" data-name="Path 91" d="M50.387,28.6H39.957A2.247,2.247,0,0,0,37.7,30.857V54.024a2.247,2.247,0,0,0,2.257,2.257H50.412a2.247,2.247,0,0,0,2.257-2.257V30.882A2.29,2.29,0,0,0,50.387,28.6ZM45.172,54.626a1.5,1.5,0,1,1,1.5-1.5A1.509,1.509,0,0,1,45.172,54.626Zm5.717-3.761H39.455V33.79H50.863V50.865Z" transform="translate(-28.247 -21.429)" fill="#590ea8"/>
      <g id="Group_30" data-name="Group 30" transform="translate(31.517 6.77)">
        <path id="Path_92" data-name="Path 92" d="M127.154,32.587l-.627,1.931H125.7l2.081-6.118h.953l2.081,6.118h-.852l-.652-1.931Zm2.006-.627-.6-1.755c-.125-.4-.226-.752-.3-1.1h-.025a10.44,10.44,0,0,1-.3,1.1l-.6,1.78h1.83Z" transform="translate(-125.7 -28.049)" fill="#590ea8"/>
        <path id="Path_93" data-name="Path 93" d="M146.852,35.2l.852,2.457a8.169,8.169,0,0,1,.351,1.128h.025q.15-.527.376-1.128l.852-2.457h.827l-1.73,4.388h-.752L146,35.2Z" transform="translate(-140.91 -33.144)" fill="#590ea8"/>
        <path id="Path_94" data-name="Path 94" d="M166.86,38.31a6.7,6.7,0,0,0,.075,1.053h-.727l-.075-.552h-.025a1.612,1.612,0,0,1-1.354.652A1.267,1.267,0,0,1,163.4,38.21c0-1.053.953-1.63,2.633-1.63v-.1a.893.893,0,0,0-1-1,2.148,2.148,0,0,0-1.153.326l-.175-.527a2.837,2.837,0,0,1,1.454-.376c1.354,0,1.68.928,1.68,1.805v1.6Zm-.777-1.178c-.878-.025-1.855.125-1.855.978a.7.7,0,0,0,.752.752,1.1,1.1,0,0,0,1.078-.727.853.853,0,0,0,.025-.251Z" transform="translate(-153.947 -32.919)" fill="#590ea8"/>
        <path id="Path_95" data-name="Path 95" d="M182.1,28.928a.514.514,0,1,1,.025-1.028.487.487,0,0,1,.5.5.5.5,0,0,1-.527.527Zm-.376,5.19V29.73h.8v4.388Z" transform="translate(-167.584 -27.674)" fill="#590ea8"/>
        <path id="Path_96" data-name="Path 96" d="M190.4,27h.8v6.444h-.8Z" transform="translate(-174.178 -27)" fill="#590ea8"/>
        <path id="Path_97" data-name="Path 97" d="M200.66,38.31a6.7,6.7,0,0,0,.075,1.053h-.727l-.075-.552h-.025a1.612,1.612,0,0,1-1.354.652A1.267,1.267,0,0,1,197.2,38.21c0-1.053.953-1.63,2.633-1.63v-.1a.893.893,0,0,0-1-1,2.147,2.147,0,0,0-1.153.326l-.176-.527a2.837,2.837,0,0,1,1.454-.376c1.354,0,1.68.928,1.68,1.805v1.6Zm-.777-1.178c-.878-.025-1.855.125-1.855.978a.7.7,0,0,0,.752.752,1.1,1.1,0,0,0,1.078-.727.852.852,0,0,0,.025-.251Z" transform="translate(-179.273 -32.919)" fill="#590ea8"/>
        <path id="Path_98" data-name="Path 98" d="M215.825,27h.8v2.758h.025a1.6,1.6,0,0,1,1.5-.8,1.979,1.979,0,0,1,1.855,2.232,2.1,2.1,0,0,1-1.981,2.357,1.62,1.62,0,0,1-1.479-.827h-.025l-.05.727H215.8c.025-.3.025-.752.025-1.128Zm.8,4.689a1.221,1.221,0,0,0,.025.3,1.235,1.235,0,0,0,1.2.928c.852,0,1.329-.677,1.329-1.68,0-.878-.451-1.63-1.3-1.63a1.247,1.247,0,0,0-1.2.978,1.27,1.27,0,0,0-.05.326Z" transform="translate(-193.209 -27)" fill="#590ea8"/>
        <path id="Path_99" data-name="Path 99" d="M236.3,27h.8v6.444h-.8Z" transform="translate(-208.569 -27)" fill="#590ea8"/>
        <path id="Path_100" data-name="Path 100" d="M244.077,37.157a1.412,1.412,0,0,0,1.5,1.529,2.755,2.755,0,0,0,1.2-.226l.15.552a3.643,3.643,0,0,1-1.479.276,2.04,2.04,0,0,1-2.156-2.206,2.143,2.143,0,0,1,2.081-2.382,1.848,1.848,0,0,1,1.805,2.056,1.442,1.442,0,0,1-.025.376Zm2.332-.577c0-.5-.2-1.3-1.1-1.3a1.327,1.327,0,0,0-1.229,1.3Z" transform="translate(-213.814 -32.769)" fill="#590ea8"/>
        <path id="Path_101" data-name="Path 101" d="M270.906,39.388a2.1,2.1,0,0,1-2.106-2.257,2.149,2.149,0,0,1,2.181-2.332,2.083,2.083,0,0,1,2.106,2.257,2.144,2.144,0,0,1-2.181,2.332Zm.025-.6c.752,0,1.329-.727,1.329-1.7,0-.752-.376-1.68-1.3-1.68s-1.354.878-1.354,1.7c0,.978.552,1.68,1.329,1.68Z" transform="translate(-232.92 -32.844)" fill="#590ea8"/>
        <path id="Path_102" data-name="Path 102" d="M289.55,36.179A8.519,8.519,0,0,0,289.5,35h.7l.05.727h.025a1.66,1.66,0,0,1,1.454-.827c.6,0,1.555.351,1.555,1.88v2.633h-.8V36.831c0-.7-.251-1.3-1.028-1.3a1.159,1.159,0,0,0-1.078.827,1.705,1.705,0,0,0-.05.376v2.658h-.8V36.179Z" transform="translate(-248.43 -32.919)" fill="#590ea8"/>
        <path id="Path_103" data-name="Path 103" d="M316.654,31v1.053h1.153v.6h-1.153v2.357c0,.552.15.852.6.852a1.709,1.709,0,0,0,.451-.05l.025.6a2.325,2.325,0,0,1-.7.1,1.112,1.112,0,0,1-.852-.326,1.672,1.672,0,0,1-.3-1.153V32.63H315.2v-.6h.677v-.777Z" transform="translate(-267.686 -29.997)" fill="#590ea8"/>
        <path id="Path_104" data-name="Path 104" d="M328.9,27h.8v2.758h.025a1.363,1.363,0,0,1,.577-.552,1.516,1.516,0,0,1,.827-.226c.577,0,1.53.351,1.53,1.88v2.608h-.8V30.936c0-.727-.276-1.3-1.028-1.3a1.136,1.136,0,0,0-1.078.8.856.856,0,0,0-.05.376v2.658h-.8Z" transform="translate(-277.951 -27)" fill="#590ea8"/>
        <path id="Path_105" data-name="Path 105" d="M348.277,37.232a1.412,1.412,0,0,0,1.5,1.529,2.971,2.971,0,0,0,1.229-.226l.125.577a3.644,3.644,0,0,1-1.479.276,2.04,2.04,0,0,1-2.156-2.206,2.14,2.14,0,0,1,2.056-2.382,1.848,1.848,0,0,1,1.805,2.056,1.443,1.443,0,0,1-.025.376Zm2.332-.577c0-.5-.2-1.3-1.1-1.3a1.327,1.327,0,0,0-1.229,1.3Z" transform="translate(-291.888 -32.844)" fill="#590ea8"/>
        <path id="Path_106" data-name="Path 106" d="M374.3,28.928a.514.514,0,0,1,.025-1.028.487.487,0,0,1,.5.5.5.5,0,0,1-.527.527Zm-.4,5.19V29.73h.8v4.388Z" transform="translate(-311.594 -27.674)" fill="#590ea8"/>
        <path id="Path_107" data-name="Path 107" d="M382.6,28.325a7.833,7.833,0,0,1,1.5-.125,2.472,2.472,0,0,1,1.7.5,1.692,1.692,0,0,1,.552,1.279,1.846,1.846,0,0,1-.476,1.3,2.542,2.542,0,0,1-1.88.677,2.444,2.444,0,0,1-.627-.05v2.457H382.6Zm.8,2.934a2.452,2.452,0,0,0,.652.075c.953,0,1.529-.476,1.529-1.3s-.577-1.2-1.454-1.2a2.639,2.639,0,0,0-.752.075v2.357Z" transform="translate(-318.187 -27.899)" fill="#590ea8"/>
        <path id="Path_108" data-name="Path 108" d="M401.4,27h.8v2.758h.025a1.364,1.364,0,0,1,.577-.552,1.516,1.516,0,0,1,.827-.226c.6,0,1.529.351,1.529,1.88v2.608h-.8V30.936c0-.727-.276-1.3-1.028-1.3a1.136,1.136,0,0,0-1.078.8.856.856,0,0,0-.05.376v2.658h-.8Z" transform="translate(-332.273 -27)" fill="#590ea8"/>
        <path id="Path_109" data-name="Path 109" d="M422.106,39.388A2.1,2.1,0,0,1,420,37.132a2.149,2.149,0,0,1,2.181-2.332,2.083,2.083,0,0,1,2.106,2.257,2.131,2.131,0,0,1-2.181,2.332Zm.025-.6c.752,0,1.329-.727,1.329-1.7,0-.752-.376-1.68-1.3-1.68s-1.354.878-1.354,1.7c.025.978.552,1.68,1.329,1.68Z" transform="translate(-346.21 -32.844)" fill="#590ea8"/>
        <path id="Path_110" data-name="Path 110" d="M440.925,36.179c0-.451,0-.827-.025-1.178h.7l.05.727h.025a1.66,1.66,0,0,1,1.454-.827c.6,0,1.555.351,1.555,1.88v2.633h-.8V36.831c0-.7-.276-1.3-1.028-1.3a1.159,1.159,0,0,0-1.078.827,1.707,1.707,0,0,0-.05.376v2.658h-.8Z" transform="translate(-361.87 -32.919)" fill="#590ea8"/>
        <path id="Path_111" data-name="Path 111" d="M460.377,37.157a1.412,1.412,0,0,0,1.5,1.529,2.755,2.755,0,0,0,1.2-.226l.15.552a3.643,3.643,0,0,1-1.479.276,2.04,2.04,0,0,1-2.156-2.206,2.14,2.14,0,0,1,2.056-2.382,1.848,1.848,0,0,1,1.805,2.056,1.443,1.443,0,0,1-.025.376Zm2.332-.577c0-.5-.2-1.3-1.1-1.3a1.327,1.327,0,0,0-1.229,1.3Z" transform="translate(-375.881 -32.769)" fill="#590ea8"/>
      </g>
      <g id="Group_31" data-name="Group 31" transform="translate(31.341 17.1)">
        <path id="Path_112" data-name="Path 112" d="M130.391,69.3,125,85.121h2.457l1.6-4.864h5.215l1.655,4.864h2.532L133.074,69.3Zm1.279,2.583c.176.7.376,1.429.627,2.232l1.454,4.187h-4.137l1.429-4.237C131.268,73.412,131.469,72.66,131.669,71.883Z" transform="translate(-125 -69.024)" fill="#590ea8"/>
        <path id="Path_113" data-name="Path 113" d="M188.293,85.6a4.486,4.486,0,0,0-3.811,1.83l-.1-1.58H182.2l.025.2c.075.978.1,2.056.1,3.611v12.211h2.407V96.181a4.265,4.265,0,0,0,3.285,1.4,4.945,4.945,0,0,0,3.636-1.555,6.533,6.533,0,0,0,1.6-4.613,6.328,6.328,0,0,0-1.4-4.212A4.739,4.739,0,0,0,188.293,85.6Zm-.6,1.981c2.131,0,3.084,1.981,3.084,3.936,0,2.532-1.229,4.087-3.184,4.087a2.917,2.917,0,0,1-2.833-2.231,3.4,3.4,0,0,1-.075-.777V90.665c0-.176.05-.376.075-.6,0-.075.025-.125.025-.2A3.071,3.071,0,0,1,187.691,87.581Z" transform="translate(-167.858 -81.237)" fill="#590ea8"/>
        <path id="Path_114" data-name="Path 114" d="M237.493,85.6a4.486,4.486,0,0,0-3.811,1.83l-.1-1.58H231.4v.2c.075.978.1,2.056.1,3.611v12.211h2.407V96.181a4.265,4.265,0,0,0,3.285,1.4,4.945,4.945,0,0,0,3.636-1.555,6.533,6.533,0,0,0,1.6-4.613,6.327,6.327,0,0,0-1.4-4.212A4.647,4.647,0,0,0,237.493,85.6Zm-.6,1.981c2.131,0,3.084,1.981,3.084,3.936,0,2.532-1.229,4.087-3.184,4.087a2.917,2.917,0,0,1-2.833-2.231,3.394,3.394,0,0,1-.075-.777V90.665c0-.176.05-.376.075-.6,0-.075.025-.125.025-.2A3.071,3.071,0,0,1,236.891,87.581Z" transform="translate(-204.722 -81.237)" fill="#590ea8"/>
        <path id="Path_115" data-name="Path 115" d="M300.292,75.17c-2.232-.878-2.959-1.555-2.959-2.808,0-1.053.853-2.131,2.733-2.131a5.537,5.537,0,0,1,2.808.7l.2.125.677-2.006-.125-.075a7.1,7.1,0,0,0-3.485-.777c-3.059,0-5.19,1.805-5.19,4.388,0,2.081,1.329,3.535,4.212,4.588,2.031.752,2.783,1.529,2.783,2.883,0,1.5-1.178,2.457-3.034,2.457a6.543,6.543,0,0,1-3.46-.978l-.2-.125L294.6,83.47l.125.075a8.214,8.214,0,0,0,4.037,1.053c4.112,0,5.566-2.507,5.566-4.664C304.328,77.678,303.175,76.3,300.292,75.17Z" transform="translate(-252.076 -68.2)" fill="#590ea8"/>
        <path id="Path_116" data-name="Path 116" d="M338.387,75.7l-2.357.727v1.981H334.3v1.906h1.73v5.867a4.481,4.481,0,0,0,.827,3.034,3.075,3.075,0,0,0,2.307.9,5.952,5.952,0,0,0,1.855-.276l.125-.05-.125-1.906-.226.075a3.33,3.33,0,0,1-1.1.125c-.928,0-1.329-.577-1.329-1.956V80.364h2.883V78.458h-2.883V75.7Z" transform="translate(-281.822 -73.82)" fill="#590ea8"/>
        <path id="Path_117" data-name="Path 117" d="M368.792,85.6c-3.36,0-5.692,2.507-5.692,6.093,0,3.485,2.257,5.892,5.516,5.892h.025c2.733,0,5.692-1.906,5.692-6.093a6.058,6.058,0,0,0-1.529-4.237A5.308,5.308,0,0,0,368.792,85.6Zm-.075,1.906c2.156,0,3.134,2.106,3.134,4.062,0,2.407-1.329,4.137-3.184,4.137h-.025c-1.805,0-3.134-1.7-3.134-4.087C365.532,89.562,366.51,87.506,368.716,87.506Z" transform="translate(-303.401 -81.237)" fill="#590ea8"/>
        <path id="Path_118" data-name="Path 118" d="M419.192,85.8l-.15-.025a2.328,2.328,0,0,0-.6-.075,3.4,3.4,0,0,0-3.009,1.931l-.075-1.68H413.2l.025.2c.075.953.1,2.006.1,3.46l-.025,7.823h2.407V91.291a5.351,5.351,0,0,1,.075-.928,2.653,2.653,0,0,1,2.532-2.407,5.3,5.3,0,0,1,.652.05l.251.025V85.8Z" transform="translate(-340.939 -81.312)" fill="#590ea8"/>
        <path id="Path_119" data-name="Path 119" d="M442.416,85.5c-3.184,0-5.416,2.557-5.416,6.193,0,3.51,2.206,5.792,5.641,5.792a9.215,9.215,0,0,0,3.786-.727l.15-.075-.451-1.78-.2.075a7.324,7.324,0,0,1-3.009.527,3.333,3.333,0,0,1-3.585-3.485l7.722.025.025-.15a5.264,5.264,0,0,0,.075-1C447.18,88.434,445.926,85.5,442.416,85.5Zm-.15,1.83a2.323,2.323,0,0,1,1.755.677,3.532,3.532,0,0,1,.827,2.232h-5.466C439.608,88.835,440.46,87.33,442.265,87.33Z" transform="translate(-358.772 -81.162)" fill="#590ea8"/>
      </g>
    </g>
  </g>
</svg>
