<svg xmlns="http://www.w3.org/2000/svg" xmlns:xlink="http://www.w3.org/1999/xlink" width="106.05" height="63.805" viewBox="0 0 106.05 63.805">
  <defs>
    <clipPath id="clip-path">
      <rect width="106.05" height="63.805" fill="none"/>
    </clipPath>
  </defs>
  <g id="Repeat_Grid_2" data-name="Repeat Grid 2" clip-path="url(#clip-path)">
    <g id="Group_4854" data-name="Group 4854" transform="translate(-2256.98 458.902)">
      <g id="Group_4254" data-name="Group 4254" transform="translate(2244 -642.52)">
        <path id="Path_3503" data-name="Path 3503" d="M12.98,231.3v-.163H23.126v1.883h-.163v-.076a.091.091,0,0,1-.022-.065,1.465,1.465,0,0,0-.609-1.013,2.954,2.954,0,0,0-1.2-.185H15.963v7.066h4.814a2.456,2.456,0,0,0,.847-.1.478.478,0,0,0,.261-.436h.164v1.535h-.164q0-.555-.717-.555h-5.2v6.393a1.673,1.673,0,0,0,.277,1.163,1.381,1.381,0,0,0,.953.261v.163H12.98v-.163q.74,0,.936-.283a1.376,1.376,0,0,0,.2-.794V232.746a2.025,2.025,0,0,0-.229-1.126A1.048,1.048,0,0,0,12.98,231.3Z" fill="#8c2de0"/>
        <path id="Path_3504" data-name="Path 3504" d="M31.414,239.791H26.708l-2.428,6.053a3.514,3.514,0,0,0-.25.806q0,.359.534.359v.163H22.179v-.163a1.347,1.347,0,0,0,.8-.234,2.949,2.949,0,0,0,.718-1.215L29.514,230.9H29.8l5.717,14.162a6.126,6.126,0,0,0,.44,1.03,1.422,1.422,0,0,0,1.341.921v.163H33.556v-.163q.511,0,.512-.4a2.634,2.634,0,0,0-.251-.871.366.366,0,0,1-.076-.141c-.015-.073-.025-.109-.032-.109Zm-4.552-.447H31.2l-2.166-5.465Z" fill="#8c2de0"/>
        <path id="Path_3505" data-name="Path 3505" d="M45.967,231.343l.763,2-.131.021q0-.011-.6-.642a4.168,4.168,0,0,0-3.141-1.317,3.571,3.571,0,0,0-2.608.942,3.058,3.058,0,0,0-.963,2.27,2.651,2.651,0,0,0,.452,1.54,4.107,4.107,0,0,0,1.887,1.229q2.469.832,3.38,1.251a5.2,5.2,0,0,1,1.754,1.419,3.845,3.845,0,0,1,.844,2.567,4.961,4.961,0,0,1-.152,1.245,4.145,4.145,0,0,1-.49,1.142,4.95,4.95,0,0,1-.811,1,3.757,3.757,0,0,1-.964.685,5.177,5.177,0,0,1-1.546.354q-1.056.119-1.393.119H37.965v-4.659h.164a4.145,4.145,0,0,0,1.088,3.233,5.025,5.025,0,0,0,3.321.915,4.461,4.461,0,0,0,3.108-.969,3.045,3.045,0,0,0,1.062-2.33,2.572,2.572,0,0,0-.371-1.41,3.456,3.456,0,0,0-1.034-1.023,12.4,12.4,0,0,0-2.513-1.076,13.4,13.4,0,0,1-2.586-1.13,3.706,3.706,0,0,1-1.247-1.458,4.283,4.283,0,0,1-.5-1.985,4.211,4.211,0,0,1,1.28-3.122,4.575,4.575,0,0,1,3.358-1.262,9.047,9.047,0,0,1,1.742.185,8.393,8.393,0,0,1,1.045.24A.2.2,0,0,0,45.967,231.343Z" fill="#8c2de0"/>
        <path id="Path_3506" data-name="Path 3506" d="M60.73,239.17H51.922v6.165A4.5,4.5,0,0,0,52,246.444a.821.821,0,0,0,.3.4,1.37,1.37,0,0,0,.778.163v.163H48.939v-.163q1.133.076,1.133-1.1V233.018a3.275,3.275,0,0,0-.18-1.393q-.18-.293-.953-.326v-.163h4.148v.163a1.577,1.577,0,0,0-.925.261,1.216,1.216,0,0,0-.24.893v6.271H60.73v-5.738a3.51,3.51,0,0,0-.169-1.333q-.168-.354-.941-.354v-.163h4.093v.163a1.75,1.75,0,0,0-.723.114.611.611,0,0,0-.323.354,4.96,4.96,0,0,0-.086,1.218v12.3a4.674,4.674,0,0,0,.086,1.18.814.814,0,0,0,.3.387,1.35,1.35,0,0,0,.744.152v.163H59.62v-.163a1.122,1.122,0,0,0,.887-.272,2.857,2.857,0,0,0,.223-1.468Z" fill="#8c2de0"/>
        <path id="Path_3507" data-name="Path 3507" d="M69.636,231.136v.163a1.667,1.667,0,0,0-.7.1.629.629,0,0,0-.457.381,5.831,5.831,0,0,0-.071,1.185v12.305a5.13,5.13,0,0,0,.082,1.224.733.733,0,0,0,.316.37,1.678,1.678,0,0,0,.833.147v.163H65.357v-.163q.805,0,1-.31a3.16,3.16,0,0,0,.2-1.409V233.1a3.307,3.307,0,0,0-.218-1.5q-.217-.354-.98-.31v-.163Z" fill="#8c2de0"/>
        <path id="Path_3508" data-name="Path 3508" d="M80.109,230.9a7.657,7.657,0,0,1,5.52,2.052,6.8,6.8,0,0,1,2.144,5.123,9.463,9.463,0,0,1-2.482,6.652,8.519,8.519,0,0,1-6.587,2.7,7.348,7.348,0,0,1-7.577-7.4,9.861,9.861,0,0,1,1.023-4.224,8.526,8.526,0,0,1,7.959-4.9Zm-.065,15.677a6.7,6.7,0,0,0,3.266-.887,6.591,6.591,0,0,0,2.536-2.444,6.19,6.19,0,0,0,.926-3.2,7.571,7.571,0,0,0-1.247-4.235,8.864,8.864,0,0,0-3.233-2.983,7.8,7.8,0,0,0-3.675-1.078,6.226,6.226,0,0,0-4.327,1.8,5.827,5.827,0,0,0-1.943,4.463,8.57,8.57,0,0,0,2.373,5.988A7.106,7.106,0,0,0,80.044,246.573Z" fill="#8c2de0"/>
        <path id="Path_3509" data-name="Path 3509" d="M102.536,231.136h3.1v.163a1.425,1.425,0,0,0-.98.3,1.756,1.756,0,0,0-.272,1.171v14.6L91.6,233.747v11.859a2.958,2.958,0,0,0,.087.837.633.633,0,0,0,.25.37,2.853,2.853,0,0,0,.817.2v.163H89.668v-.163q.827,0,1.028-.294a2.978,2.978,0,0,0,.2-1.4V234.465a5.841,5.841,0,0,0-.4-2.328q-.4-.9-1.835-.838v-.163h3.016l12.019,12.8V232.616c0-.61-.109-.981-.327-1.116a1.575,1.575,0,0,0-.838-.2Z" fill="#8c2de0"/>
        <path id="Path_3510" data-name="Path 3510" d="M116.624,231.136h2.406v.163a1.6,1.6,0,0,0-.751.218,2.6,2.6,0,0,0-.675.762l-3.92,5.945v7.341a1.985,1.985,0,0,0,.231,1.167,1.305,1.305,0,0,0,1,.277v.163h-4.29v-.163q1.23.076,1.23-.968l-.021-.457V238.8l-3.931-6.5q-.62-1.035-1.382-1v-.163h3.788v.163q-.529,0-.529.4a1.452,1.452,0,0,0,.272.641l3.235,5.337,3.533-5.379a1.15,1.15,0,0,0,.218-.321.918.918,0,0,0,.119-.321q0-.358-.468-.359h-.065Z" fill="#8c2de0"/>
      </g>
      <path id="Path_3511" data-name="Path 3511" d="M74.5,203.684c4.533-1.748,9.448-3.249,13.372-6.213-4.042,1.9-8.133,4.041-12.562,5.16,19-26.6-3.507-23.611-8.469-1.453C24.039,180.971,21.73,215.439,66.2,205.6c0,0,0,.025-.008.071a9.2,9.2,0,0,0-.055,1.906,16.871,16.871,0,0,0,.946,5.243,142.145,142.145,0,0,1-10.627,12.044,103.1,103.1,0,0,0,10.855-11.549c1.1,2.415,3.9,4.139,6.519,2.75.3-.118-4.377-2.129-5.115-4.481,1.411-2.165,3.24-4.227,4.754-6.384l.153-.136c.705.176,2.013.493,3.672.848,1.245.25,2.581.52,3.961.772a63.188,63.188,0,0,0,8.247.964h.011c3.169.056,6.055-.414,8.045-1.914C89.94,205.82,81.887,205.946,74.5,203.684Zm-8.091.951-.392.072h0l-3.007.554c-41.232,6.013-33.87-21.412,3.509-2.464Zm1.554-1.32,1.992.665v0l-2.112.389Zm.544,7.678c-.468-.746-.875-3.923-.737-5.728,1.806-.363,3.489-1.213,5.276-.351C71.585,206.988,70.065,209,68.512,210.993ZM73.845,203c-1.556.553-3.431-.532-5.656-1.111.9-5.223,3.015-10.409,6.857-14.159,1.354-1.279,4.873-4.177,6.549-2.6a1.727,1.727,0,0,1,.517,1.3,17.591,17.591,0,0,1-2.346,7.789c-.749,1.339-1.41,2.475-1.992,3.438q-.324.528-.646,1.049C74.8,202.416,73.969,202.942,73.845,203Z" transform="translate(2244 -642.52)" fill="#8c2de0"/>
      <path id="Path_3512" data-name="Path 3512" d="M91.189,183.618l.223,1.068a3.9,3.9,0,0,0,3.026,3.026l1.068.223-1.068.224a3.9,3.9,0,0,0-3.026,3.025l-.223,1.069-.224-1.069a3.9,3.9,0,0,0-3.025-3.025l-1.069-.224,1.069-.223a3.9,3.9,0,0,0,3.025-3.026Z" transform="translate(2244 -642.52)" fill="#8c2de0"/>
    </g>
  </g>
</svg>
