<svg xmlns="http://www.w3.org/2000/svg" width="46.321" height="47.386" viewBox="0 0 46.321 47.386">
  <path id="Path_8838" data-name="Path 8838" d="M1699.224,624.206a1.547,1.547,0,0,0,1.544-1.449l.938-14.67,12.617-7.544a1.548,1.548,0,0,0-.223-2.766l-13.661-5.425-3.276-14.33a1.547,1.547,0,0,0-2.7-.643L1685.08,588.7l-14.64-1.313a1.548,1.548,0,0,0-1.446,2.369l7.864,12.419-5.773,13.519a1.547,1.547,0,0,0,1.806,2.107l14.242-3.641,11.073,9.668a1.55,1.55,0,0,0,1.018.382m10.819-24.709-10.623,6.352a1.545,1.545,0,0,0-.75,1.229l-.79,12.353-9.324-8.141a1.546,1.546,0,0,0-1.4-.333l-11.992,3.065,4.861-11.383a1.546,1.546,0,0,0-.116-1.435l-6.621-10.458,12.328,1.105a1.548,1.548,0,0,0,1.33-.554l7.9-9.529,2.758,12.066a1.549,1.549,0,0,0,.937,1.094Z" transform="translate(-1668.754 -576.82)" fill="#aee1f4"/>
</svg>
