<svg xmlns="http://www.w3.org/2000/svg" xmlns:xlink="http://www.w3.org/1999/xlink" width="153.331" height="86.887" viewBox="0 0 153.331 86.887">
  <defs>
    <clipPath id="clip-path">
      <rect width="153.331" height="86.887" fill="none"/>
    </clipPath>
  </defs>
  <g id="Repeat_Grid_1" data-name="Repeat Grid 1" clip-path="url(#clip-path)">
    <g transform="translate(-394.133 -427.21)">
      <path id="Path_8841" data-name="Path 8841" d="M35.093,1645.449a62.307,62.307,0,0,1,3.633-8.792,2.3,2.3,0,0,0-4.118-2.062,66.9,66.9,0,0,0-3.9,9.448,2.3,2.3,0,1,0,4.386,1.406m8.459-17.067a76.774,76.774,0,0,1,5.81-7.614,2.3,2.3,0,1,0-3.478-3.02,81.553,81.553,0,0,0-6.159,8.072,2.3,2.3,0,1,0,3.827,2.562m97.861-18.08a2.3,2.3,0,0,0-2.153-2.443c-3.107-.2-6.36-.518-9.669-.955a2.3,2.3,0,0,0-.6,4.566c3.412.452,6.771.783,9.982.986a2.3,2.3,0,0,0,2.443-2.153m-85.317,3.7a56.393,56.393,0,0,1,7.632-5.611,2.3,2.3,0,1,0-2.394-3.935,61.035,61.035,0,0,0-8.259,6.069,2.3,2.3,0,0,0,3.021,3.476m65.712-5.968a2.3,2.3,0,0,0-1.83-2.695c-3.141-.6-6.346-1.3-9.525-2.081a2.3,2.3,0,1,0-1.1,4.473c3.256.8,6.539,1.516,9.758,2.132a2.3,2.3,0,0,0,2.695-1.829m-19.223-4.47a2.3,2.3,0,0,0-1.546-2.867q-1.755-.526-3.445-1.068a43.981,43.981,0,0,0-6.374-1.538,2.3,2.3,0,1,0-.737,4.546,39.49,39.49,0,0,1,5.705,1.378q1.731.555,3.531,1.094a2.3,2.3,0,0,0,2.867-1.546m-30.4.781a38.112,38.112,0,0,1,9.053-2.019,2.3,2.3,0,0,0-.436-4.585A42.7,42.7,0,0,0,70.648,1600a2.3,2.3,0,1,0,1.532,4.343" transform="translate(406.046 -1170.522)" fill="#fbe9db"/>
      <path id="Path_8842" data-name="Path 8842" d="M432.086,1736.854l6.35,8.971-46.912,36.9Z" transform="translate(2.609 -1268.624)" fill="#fbd5b7"/>
      <path id="Path_8843" data-name="Path 8843" d="M422.4,1804.206l-2.249,10.934-48.413,13.379Z" transform="translate(24.477 -1316.117)" fill="#fbd5b7"/>
      <path id="Path_8844" data-name="Path 8844" d="M275.8,1791.862l81.033-33.9-29.375-8.143Z" transform="translate(118.333 -1277.765)" fill="#fbe9db"/>
      <path id="Path_8845" data-name="Path 8845" d="M453.621,1721.574l-40.562,45.867,22.017-52.256Z" transform="translate(-18.926 -1253.344)" fill="#fbe9db"/>
    </g>
  </g>
</svg>
